A tough U.S. Marshal helps a stubborn young woman track down her father's murderer...
 
http://www.imdb.com/title/tt1403865/

Subs: Dutch, English.


Nadat ze ziet hoe haar vader vermoord wordt door Tom Chaney besluit de 14-jarige Mattie Ross deze moordenaar te vangen. Ze huurt de taaiste U.S. marshall, J. "Rooster" Cogburn, om haar te helpen. Mattie staat erop dat ze meereist met Cogburn, wiens drinkgedrag, luiigheid en algemeen veroordelend karakter haar vertrouwen in hem niet vergroot. Tegen zijn wil reist ze met hem mee door de Indiaanse streken om Chany te zoeken. Ze worden bijgestaan door Texas Ranger LaBoeuf, die Chaney wil hebben voor andere doeleinden. Dit onwaarschijnlijk trio staat vele gevaren en verrassingen te wachten op hun reis...
 
http://www.moviemeter.nl/film/68966

Subs: Engels, Nederlands.

General
Complete name                    : True Grit-AC3-XviD-BRRip 2010.avi
Format                           : AVI
Format/Info                      : Audio Video Interleave
File size                        : 1.56 GiB
Duration                         : 1h 50mn
Overall bit rate                 : 2 022 Kbps
Writing application              : VirtualDubMod 1.5.4.1 (build 2178/release)
Writing library                  : VirtualDubMod build 2178/release
Source                           : True.Grit.2010.720p.BluRay.x264-Felony

Video
ID                               : 0
Format                           : MPEG-4 Visual
Format profile                   : Simple@L3
Format settings, BVOP            : No
Format settings, QPel            : No
Format settings, GMC             : No warppoints
Format settings, Matrix          : Default (H.263)
Codec ID                         : XVID
Codec ID/Hint                    : XviD
Duration                         : 1h 50mn
Bit rate                         : 1 565 Kbps
Width                            : 720 pixels
Height                           : 304 pixels
Display aspect ratio             : 2.35:1
Frame rate                       : 23.976 fps
Resolution                       : 8 bits
Colorimetry                      : 4:2:0
Scan type                        : Progressive
Bits/(Pixel*Frame)               : 0.298
Stream size                      : 1.21 GiB (77%)
Writing library                  : XviD 1.1.2 (UTC 2006-11-01)

Audio
ID                               : 1
Format                           : AC-3
Format/Info                      : Audio Coding 3
Codec ID                         : 2000
Duration                         : 1h 50mn
Bit rate mode                    : Constant
Bit rate                         : 448 Kbps
Channel(s)                       : 6 channels
Channel positions                : Front: L C R, Surround: L R, LFE
Sampling rate                    : 48.0 KHz
Stream size                      : 354 MiB (22%)
Alignment                        : Split accross interleaves
Interleave, duration             : 42 ms (1.00 video frame)
Interleave, preload duration     : 500 ms

Enjoy....

TBS. 

Thanks to Simply ReleaseS Toppers.